<?xml version="1.0" encoding="utf-8"?>
<!-- Generator: Adobe Illustrator 27.5.0, SVG Export Plug-In . SVG Version: 6.00 Build 0)  -->
<svg version="1.1" xmlns="http://www.w3.org/2000/svg" xmlns:xlink="http://www.w3.org/1999/xlink" x="0px" y="0px"
	 viewBox="0 0 1200 800" style="enable-background:new 0 0 1200 800;" xml:space="preserve">
<g id="Background">
	<rect style="fill:#F4F2F4;" width="1200" height="800"/>
</g>
<g id="Graphic_Elements">
	<g>
		<path style="fill:#FFFFFF;stroke:#030303;stroke-width:2;stroke-linecap:round;stroke-linejoin:round;stroke-miterlimit:10;" d="
			M702.578,677.529v1.532c-0.055,1.008-1.421,1.975-3.581,1.975H501.003c-2.159,0-3.525-0.967-3.581-1.975v-0.056
			c0-0.533,0.383-1.07,1.21-1.476H702.578z"/>
		<path style="fill:#FFFFFF;stroke:#030303;stroke-width:2;stroke-linecap:round;stroke-linejoin:round;stroke-miterlimit:10;" d="
			M698.997,681.13H501.003c-3.481,0-4.913-4.174-2.071-6.054l19.868-13.164c3.736-2.476,6.134-6.344,6.573-10.596l6.484-62.943
			h136.286l6.484,62.943c0.439,4.252,2.837,8.12,6.573,10.596l19.868,13.164C703.91,676.955,702.478,681.13,698.997,681.13z"/>
		<path style="fill:#FFFFFF;stroke:#030303;stroke-width:2;stroke-linecap:round;stroke-linejoin:round;stroke-miterlimit:10;" d="
			M940.306,135.322v436.234c0,9.086-7.365,16.451-16.452,16.451H276.146c-9.086,0-16.451-7.365-16.451-16.451V135.322
			c0-9.086,7.365-16.451,16.451-16.451h647.709C932.941,118.87,940.306,126.236,940.306,135.322z"/>
		<path style="fill:#FFFFFF;stroke:#030303;stroke-width:2;stroke-linecap:round;stroke-linejoin:round;stroke-miterlimit:10;" d="
			M940.306,525.81v45.9c0,4.142-1.562,7.925-4.138,10.797c-3.009,3.371-7.409,5.493-12.314,5.493H276.146
			c-4.905,0-9.305-2.122-12.314-5.493c-2.576-2.872-4.138-6.655-4.138-10.797v-45.9H940.306z"/>
		
			<rect x="288.144" y="149.397" style="fill:#FFFFFF;stroke:#030303;stroke-width:2;stroke-linecap:round;stroke-linejoin:round;stroke-miterlimit:10;" width="623.711" height="347.603"/>
	</g>
</g>
</svg>
